<svg width="319.087109375px" height="291.2px" xmlns="http://www.w3.org/2000/svg" viewBox="90.4564453125 -70.6 319.087109375 291.2" style="background: rgb(61, 0, 183);" preserveAspectRatio="xMidYMid"><defs><linearGradient id="editing-gradow-gradient" x1="0" x2="1" y1="0.5" y2="0.5" gradientUnits="objectBoundingBox"><stop offset="0" stop-color="#f0f"></stop><stop offset="1" stop-color="#0ff"></stop></linearGradient><filter id="editing-gradow-filter" x="-100%" y="-100%" width="300%" height="300%"><feFlood flood-color="#fffcd9" result="flood"></feFlood><feComposite operator="in" in2="SourceAlpha" in="flood" result="shadow"></feComposite><feOffset dx="-4" dy="-4" in="SourceGraphic" result="offset-1"></feOffset><feOffset dx="4" dy="4" in="shadow" result="offset-2"></feOffset><feMerge><feMergeNode in="offset-2"></feMergeNode><feMergeNode in="offset-1"></feMergeNode></feMerge></filter></defs><g filter="url(#editing-gradow-filter)"><g transform="translate(143.4732427597046, 131.43000411987305)"><path d="M20.52 0L1.71 0L22.23-112.86L59.00-112.86L85.67-35.23L99.86-112.86L118.85-112.69L97.98 0L58.82 0L34.20-74.73L20.52 0ZM200.93-90.63L200.93-90.63L200.93-90.63Q187.07-90.63 176.99-95.25L176.99-95.25L171.51-67.55L204.52-67.55L204.52-67.55Q204.52-58.48 199.98-52.75L199.98-52.75L199.98-52.75Q195.45-47.03 187.25-47.03L187.25-47.03L187.25-47.03Q178.35-47.03 170.15-50.27L170.15-50.27L170.15-50.27Q168.44-50.96 168.26-51.13L168.26-51.13L158.52 0L121.24 0L142.96-112.86L219.22-112.86L219.22-112.86Q219.22-102.43 214.35-96.53L214.35-96.53L214.35-96.53Q209.48-90.63 200.93-90.63Z" fill="url(#editing-gradow-gradient)"></path></g></g><style>text {
  font-size: 64px;
  font-family: Arial Black;
  dominant-baseline: central;
  text-anchor: middle;
}</style></svg>